# xmcd
#
# Track frame offsets: 
#        150
#        24868
#        39733
#        56930
#        97130
#        128280
#        152968
#        174205
#        187110
#        208203
#        238128
#
# Disc length: 3475 seconds
#
# Revision: 0
# Processed by: cddbd v1.4PL0 Copyright (c) Steve Scherf et al.
# Submitted via: ExactAudioCopy v0.95a3
#
DISCID=980d910b
DTITLE=Little John Chrisley - 
DYEAR=1995
DGENRE=Blues
TTITLE0=Born In Rochester
TTITLE1=War Headed Woman
TTITLE2=The Way If Goes
TTITLE3=Disconnected
TTITLE4=Big Bad Boogie
TTITLE5=Master Plan
TTITLE6=Don't Suffocate Me
TTITLE7=Buried In Biils
TTITLE8=Beer Goggles
TTITLE9=Lifes Undertow
TTITLE10=Stone Cold Blue
EXTD=
EXTT0=
EXTT1=
EXTT2=
EXTT3=
EXTT4=
EXTT5=
EXTT6=
EXTT7=
EXTT8=
EXTT9=
EXTT10=
PLAYORDER=
